<svg xmlns="http://www.w3.org/2000/svg" viewBox="0 0 2245.9 1713"><defs><style>.cls-1{fill:#122359;}.cls-2{fill:#29123e;}.cls-3{fill:#650254;}</style></defs><g id="Camada_2" data-name="Camada 2"><g id="Camada_1-2" data-name="Camada 1"><path class="cls-1" d="M0,573.1v573.1l10.1-13.9Q186.5,891.4,446.2,741.1c86-49.8,169.4-89.5,337-160.7,160.9-68.3,208.2-89.3,277.3-123.3,108.7-53.5,180.1-96.7,252-152.2,106.4-82.2,195.7-184.5,253.4-290.5C1569.8,7.2,1573,1,1573,.7S1219.1,0,786.5,0H0Z"/><path class="cls-2" d="M1826,1.2c0,1.5-22.3,38.6-37.8,62.8-67,104.6-149.8,198.5-242.6,275.4C1473.6,399,1409.1,441,1310,492.5c-38.9,20.3-72.5,36.3-193.5,92.5-155,72-237.7,118.7-322,181.9a1122,1122,0,0,0-186.3,177c-76.5,91.7-137.9,195.6-185.4,314.1-7,17.4-15.8,40.8-15.8,41.9,0,.3,5.2-9.1,11.6-20.9A1294.88,1294.88,0,0,1,912.9,771.6c89-51.2,190.6-97.1,328.6-148.6,35.9-13.4,64.2-23.5,151.5-54.5,175.2-62.1,233.5-84.4,315.8-120.9,159.8-70.9,276-144.3,373.2-235.8,63.5-59.7,120.3-132.2,158.8-202.6l5.1-9.2h-210C1876.6,0,1826,.3,1826,1.2Z"/><path class="cls-3" d="M926.5,625.4C639.9,721.4,378.8,895.7,178,1125A1705.06,1705.06,0,0,0,13.5,1346.5C7,1356.9,1.3,1365.6.8,1365.8S0,1444.2,0,1539.6V1713H69.5l13-24.8c27.2-51.8,48.2-95.3,92-190.7,46.6-101.3,65.1-140.2,85.8-180q88.8-170.7,208.8-313.5C602.1,845.7,762.2,716.6,938,625.6c10.2-5.3,18.1-9.6,17.5-9.6S941.9,620.2,926.5,625.4Z"/></g></g></svg>