<?xml version="1.0" encoding="UTF-8" standalone="no"?>
<!DOCTYPE svg PUBLIC "-//W3C//DTD SVG 1.1//EN" "http://www.w3.org/Graphics/SVG/1.1/DTD/svg11.dtd">
<svg xmlns="http://www.w3.org/2000/svg" version="1.1" viewBox="0 0 606 411" width="606.0pt" height="411.0pt">
<path d="M 0.00 0.00 L 377.96 0.00 C 367.27 20.97 352.13 39.95 335.18 56.19 C 315.65 74.90 293.39 89.97 269.45 102.43 C 225.58 125.77 176.86 142.49 132.52 164.51 C 105.82 177.72 80.48 193.39 57.77 212.75 C 35.92 231.06 16.58 252.37 0.00 275.54 L 0.00 0.00 Z" fill="#122359" />
<path d="M 377.96 0.00 L 438.28 0.00 C 429.40 15.24 419.82 29.94 408.41 43.42 C 390.31 65.64 368.62 84.96 344.63 100.62 C 298.45 130.33 247.51 144.96 202.40 175.38 C 176.45 192.78 153.47 214.78 135.06 240.04 C 118.27 263.20 105.27 288.92 96.00 315.97 C 119.41 268.63 155.33 227.68 198.97 197.97 C 231.88 175.44 270.05 159.78 307.40 146.21 C 334.43 136.38 361.23 127.45 387.89 116.97 C 420.25 104.00 452.62 88.69 480.45 67.44 C 504.19 49.37 525.22 26.47 539.24 0.00 L 606.00 0.00 L 606.00 411.00 L 16.85 411.00 C 32.34 382.77 44.26 353.30 58.46 324.47 C 77.90 284.99 103.32 248.59 134.37 217.35 C 161.27 190.13 192.53 167.08 226.56 149.58 C 228.85 148.42 231.19 147.40 233.50 146.30 C 136.76 175.42 52.15 241.43 0.00 327.91 L 0.00 275.54 C 16.58 252.37 35.92 231.06 57.77 212.75 C 80.48 193.39 105.82 177.72 132.52 164.51 C 176.86 142.49 225.58 125.77 269.45 102.43 C 293.39 89.97 315.65 74.90 335.18 56.19 C 352.13 39.95 367.27 20.97 377.96 0.00 Z" fill="#ffffff" />
<path d="M 438.28 0.00 L 539.24 0.00 C 525.22 26.47 504.19 49.37 480.45 67.44 C 452.62 88.69 420.25 104.00 387.89 116.97 C 361.23 127.45 334.43 136.38 307.40 146.21 C 270.05 159.78 231.88 175.44 198.97 197.97 C 155.33 227.68 119.41 268.63 96.00 315.97 C 105.27 288.92 118.27 263.20 135.06 240.04 C 153.47 214.78 176.45 192.78 202.40 175.38 C 247.51 144.96 298.45 130.33 344.63 100.62 C 368.62 84.96 390.31 65.64 408.41 43.42 C 419.82 29.94 429.40 15.24 438.28 0.00 Z" fill="#0e084e" />
<path d="M 233.50 146.30 C 231.19 147.40 228.85 148.42 226.56 149.58 C 192.53 167.08 161.27 190.13 134.37 217.35 C 103.32 248.59 77.90 284.99 58.46 324.47 C 44.26 353.30 32.34 382.77 16.85 411.00 L 0.00 411.00 L 0.00 327.91 C 52.15 241.43 136.76 175.42 233.50 146.30 Z" fill="#630254" />
</svg>