<svg xmlns="http://www.w3.org/2000/svg" viewBox="0 0 946.65 2475.5"><defs><style>.cls-1{fill:#4e0c53;}.cls-2{fill:#110f50;}</style></defs><g id="Camada_2" data-name="Camada 2"><g id="Camada_1-2" data-name="Camada 1"><path class="cls-1" d="M10.25.4c-12.4.8-12.9,1.8-5,8.7,18.2,15.9,21.9,19,36,30.4,27.2,22,66,55.4,82.4,70.7,4.8,4.6,9.2,8.3,9.7,8.3s5.9,4.9,11.9,11,11.4,11,12,11,8.7,7.6,18,17,17.4,17,18,17c1.2,0,56.4,55.3,58.8,58.9.9,1.4,9,9.9,18,19s17.1,17.6,17.9,18.9,5.3,6.2,10,11,9.1,9.8,10,11a101.89,101.89,0,0,0,7.9,9c3.5,3.7,7.6,8.3,9.1,10.2a102.59,102.59,0,0,0,8,9c2.9,3.1,6.5,7.1,8,9a74.65,74.65,0,0,0,6,7c1.8,2,4.6,5.2,6.1,7.3a75,75,0,0,0,5,6,58.46,58.46,0,0,1,5,6,75,75,0,0,0,5,6,58.46,58.46,0,0,1,5,6,75,75,0,0,0,5,6,58.46,58.46,0,0,1,5,6,75,75,0,0,0,5,6,69.56,69.56,0,0,1,4.9,5.9c1.5,2,3.3,4.2,4,5a52.84,52.84,0,0,1,4,5c1.5,2,3.3,4.2,4,5s4.1,4.9,7.4,9.4,6.9,9,7.8,10c2.3,2.8,13.5,17.4,22.4,29.3,15.1,20.2,20.1,27,31.2,42.7,6.3,8.8,12.5,17.5,13.9,19.4,6.1,8,47.1,68.7,47.1,69.5,0,.3,4.1,6.6,9,14s9,13.7,9,14a93,93,0,0,0,5,8,93,93,0,0,1,5,8,70.88,70.88,0,0,0,5,8,70.88,70.88,0,0,1,5,8,29.6,29.6,0,0,0,3,5,23.6,23.6,0,0,1,3,5,23.6,23.6,0,0,0,3,5,29.6,29.6,0,0,1,3,5,27.32,27.32,0,0,0,2.8,4.8,76.19,76.19,0,0,1,4.2,7.2c.8,1.6,2.7,4.9,4.2,7.2a27.32,27.32,0,0,1,2.8,4.8,32,32,0,0,0,2.7,4.8c1.5,2.3,4.5,7.6,6.6,11.7a81.5,81.5,0,0,0,5.1,9,32,32,0,0,1,2.6,4.5c.8,1.6,2.6,4.8,3.9,7s4.7,8.3,7.4,13.5a114.85,114.85,0,0,0,6.1,11c.7.8,5,9.1,9.6,18.5s9.5,18.8,10.9,21c3.3,5.2,17.1,32.6,17.1,34,0,.5,4.1,9.1,9,19s9,18.4,9,18.8,2.7,6.4,6,13.2,6,12.6,6,12.9,1.8,4.4,4,9.1,4,8.7,4,9,1.4,3.4,3,7,3,6.8,3,7,1.4,3.4,3,7,3,6.8,3,7,1.1,2.8,2.3,5.7,3,6.9,3.7,8.8,2.1,5.4,3.1,7.7a24.56,24.56,0,0,1,1.9,5.1,25.18,25.18,0,0,0,2,5,23,23,0,0,1,2,5,27.89,27.89,0,0,0,2,5,23,23,0,0,1,2,5,27.89,27.89,0,0,0,2,5,19.71,19.71,0,0,1,2,5.5,3.6,3.6,0,0,0,.9,2.2,41.73,41.73,0,0,1,3.1,8,79.37,79.37,0,0,0,3,8,49.75,49.75,0,0,1,3,8,59.68,59.68,0,0,0,3,8,103.5,103.5,0,0,1,4,11,113.85,113.85,0,0,0,4,11c.9,1.2,26.4,78.4,31,94,1.8,6,4.6,15.5,6.3,21s4.4,14.5,6.2,20,5,17.2,7,26,5.1,21.2,6.7,27.5,4.1,15.2,5.2,19.8,2.7,8.7,3.4,9.4a4.19,4.19,0,0,1,1.2,2.4,2.28,2.28,0,0,0,1,1.9c1.5.9-.5-37.3-3.6-65-11.7-107.8-24.3-186.2-45-280-67.3-304.2-196-602.1-371.3-859.5-8.8-12.9-22.8-33.5-31.1-45.8L366.65.5H260C201.25.5,123.35.3,86.75.1S15.75,0,10.25.4Z"/><path class="cls-2" d="M37.75,262c-1.1,1.3,1.8,4.7,18.3,21.8,10.7,11.1,22.2,22.7,25.6,25.7,10.4,9.3,174.1,172,180.6,179.5,21.4,24.7,49.7,60.2,73.5,92A1872.14,1872.14,0,0,1,591,1051c23.1,62.5,47.4,142.6,65.7,216.2,38,152.9,61.3,294.3,97.1,591.3,16.5,136.4,22.1,181,30.6,243.5,16.4,120.3,35,227.6,55.4,320,4.9,22,9.4,42.6,10,45.8.9,4.7,1.6,6,3.6,6.8,1.5.5,21.7.9,47.3.9h44.9l.7-51.2c.4-28.2.5-146.5.3-262.8l-.4-211.5-5.2-13.2c-21.4-54.8-56.1-184.9-87.6-328.3-9.3-42.4-13.9-63.2-19.1-87.5-15.7-72.4-32.2-145-33.5-147.3-.9-1.6-7.5-27.2-12.1-47.2-3.6-15.5-10.9-43.7-18.8-72.5-2.8-10.2-3.7-13.8-9.1-32.5-1.1-3.9-2.9-10-3.9-13.8-3.9-13.9-31-97.1-32.2-98.7-.4-.6-2.1-5.3-3.9-10.5s-3.8-10.9-4.5-12.5-2.1-5.3-3-8a73.55,73.55,0,0,0-3-8c-.7-1.7-2.1-5.3-3-8s-2.5-6.9-3.5-9.2a37.83,37.83,0,0,1-2.6-8.5c-.3-2.4-3-9.3-5.9-15.3-8.8-18.2-10.3-21.7-12.4-29.3a70.59,70.59,0,0,0-6.4-14.5c-2.4-4-5-9-5.6-11s-3.4-7.9-6.1-13.2-5.3-11-5.9-12.8c-1.4-4-26.7-54.7-30.2-60.2-1.4-2.2-4.5-8.1-6.9-13a91.18,91.18,0,0,0-5.6-10.5,81.5,81.5,0,0,1-5.1-9c-2.1-4.1-5.1-9.4-6.6-11.7a26.11,26.11,0,0,1-2.7-5,5.33,5.33,0,0,0-1.4-2.2,48.56,48.56,0,0,1-4.4-7.4,63.38,63.38,0,0,0-4-7,54.83,54.83,0,0,1-3.9-6.7c-1.6-3-5-8.7-7.6-12.7a80,80,0,0,1-4.7-7.7,88.67,88.67,0,0,0-5-7.9c-2.7-4.1-5-7.7-5-8.1a91.84,91.84,0,0,0-5.6-8.7c-3.1-4.5-6.3-9.6-7.2-11.3-2.3-4.3-21.4-32.5-38.1-56.2-5.4-7.8-16.1-22.1-36.8-49.6-2.8-3.7-6.4-8.3-8-10.2s-4.8-5.9-7.3-9.1c-18.6-23.6-42.2-51.5-68.3-80.4-13.9-15.4-88.5-90-103.6-103.6-6.7-6.1-15.8-14.2-20-18-9.1-8.2-26.6-23.1-41.1-35-4.1-3.3-9.2-7.6-11.4-9.6-3.5-3-11-9-26.6-21.2-11.1-8.7-58.7-44.2-65.4-48.8-4.3-3-13.5-9.3-20.5-14.2-21.5-14.9-42-28.7-42.6-28.7a51.85,51.85,0,0,1-6.7-4.1c-5-3.4-16.3-9.9-17.3-9.9A9.34,9.34,0,0,0,37.75,262Z"/></g></g></svg>