<svg xmlns="http://www.w3.org/2000/svg" viewBox="0 0 816 2467"><defs><style>.cls-1{fill:#12204f;}.cls-2{fill:#100c49;}.cls-3{fill:#53074f;}</style></defs><g id="Camada_2" data-name="Camada 2"><g id="Camada_1-2" data-name="Camada 1"><path class="cls-1" d="M0,665.2C0,1051,.4,1329.9.9,1329c1.2-2,10.1-29.3,19.1-58.5,18.4-59.5,42.6-132.3,89.5-269.5,81.3-237.6,110.8-332.9,143.4-463,34.9-138.9,49.9-235.2,57.6-368.9,3-53,1.3-146.8-3-166.9L307,0H0Z"/><path class="cls-2" d="M564.6,1.6a39.33,39.33,0,0,0-.6,7.8c0,8.7-2.7,48-5.1,73.6-8.8,96-25.2,188.1-53,297.7C488.1,451.1,470.8,511,429,647.5c-39.6,129.3-59.2,197.5-75.9,264-33.2,132.9-51.4,250.7-56.1,364-.5,13.2-1.5,33.7-2.1,45.5-2.2,41.5,1.5,127.6,8.2,193,18.2,178,66.5,352.4,144.2,521,8.2,17.9,47.5,96.3,52.3,104.6,1.4,2.4,2.8,4.3,3,4.1.5-.5-9.6-30.5-20-58.9-4.7-13.1-10.1-28.8-12-35s-5.7-18.7-8.5-27.8c-45.1-147.6-71.8-306.5-79.1-470.5-1.3-28.4-1.3-118.8,0-146.5,10.7-233.7,58.3-443.6,165.2-728.5C576,602.3,601.7,538.1,666,382c69.6-169.1,97.1-238.2,124.5-313,7.6-20.6,16.4-44.4,19.6-52.9S816,.5,816,.4,759.6,0,690.6,0C577.2,0,565.2.2,564.6,1.6Z"/><path class="cls-3" d="M296.7,887.7C290,900.8,285,911.8,271,944.6c-98,228-160.9,473.6-185.9,725.4-4.5,45-7.1,80.8-10.2,138.5-1.7,31.8-2.3,153.3-1,191.5,5.5,159.6,23.8,305.1,58.1,461.7l1.2,5.3H447l-3.4-6.8c-7.4-14.7-20.8-46.5-43.8-103.7-92.9-231.3-150.7-475.2-169.3-713.5-8-102.9-9-212.5-3-312a2150.11,2150.11,0,0,1,49.6-347.5c5.6-24.7,13.6-56.8,17.9-72.2,3.6-12.9,8.3-33.4,7.7-34C302.4,877.1,299.7,881.8,296.7,887.7Z"/></g></g></svg>